<?xml version="1.0" encoding="UTF-8" standalone="no"?>
<svg
   xmlns:dc="http://purl.org/dc/elements/1.1/"
   xmlns:cc="http://creativecommons.org/ns#"
   xmlns:rdf="http://www.w3.org/1999/02/22-rdf-syntax-ns#"
   xmlns:svg="http://www.w3.org/2000/svg"
   xmlns="http://www.w3.org/2000/svg"
   xmlns:sodipodi="http://sodipodi.sourceforge.net/DTD/sodipodi-0.dtd"
   xmlns:inkscape="http://www.inkscape.org/namespaces/inkscape"
   width="2490.2773"
   height="1865.7977"
   viewBox="0 0 255.0044 191.05769"
   preserveAspectRatio="xMidYMid"
   version="1.1"
   id="svg22"
   sodipodi:docname="hadoop.svg"
   inkscape:version="0.92.1 r15371">
  <metadata
     id="metadata28">
    <rdf:RDF>
      <cc:Work
         rdf:about="">
        <dc:format>image/svg+xml</dc:format>
        <dc:type
           rdf:resource="http://purl.org/dc/dcmitype/StillImage" />
        <dc:title></dc:title>
      </cc:Work>
    </rdf:RDF>
  </metadata>
  <defs
     id="defs26" />
  <sodipodi:namedview
     pagecolor="#ffffff"
     bordercolor="#666666"
     borderopacity="1"
     objecttolerance="10"
     gridtolerance="10"
     guidetolerance="10"
     inkscape:pageopacity="0"
     inkscape:pageshadow="2"
     inkscape:window-width="1366"
     inkscape:window-height="705"
     id="namedview24"
     showgrid="false"
     fit-margin-top="0"
     fit-margin-left="0"
     fit-margin-right="0"
     fit-margin-bottom="0"
     inkscape:zoom="0.17800235"
     inkscape:cx="1240.7487"
     inkscape:cy="928.95201"
     inkscape:window-x="-8"
     inkscape:window-y="-8"
     inkscape:window-maximized="1"
     inkscape:current-layer="g4564" />
  <g
     id="g4533"
     transform="translate(-0.94733624,-0.067)">
    <g
       id="g4564">
      <g
         id="g4576">
        <path
           id="path2"
           d="m 94.92,42.186 -16.957,2.754 -15.47,6.783 -13.139,8.265 -12.504,15.258 -7.063,7.482 -6.832,2.518 -1.806,-4.416 3.159,-4.559 0.71,-6.43 2.115,0.086 2.312,2.109 -0.624,-6.55 -2.563,-1.72 0.08,-2.496 -6.071,3.434 -5.497,6.486 -1.147,5.796 2.352,4.642 2.192,7.885 4.459,2.111 4.69,-0.23 4.448,-2.584 -2.967,15.047 2.967,16.742 -3.266,7.73 -10.698,11.527 1.902,6.886 5.068,7.979 9.555,6.723 5.068,0.695 5.635,0.19 -3.516,14.433 12.928,5.297 16.106,2.12 5.51,-3.602 0.424,-9.75 6.147,-10.173 0.424,-8.053 14.835,1.06 13.775,-1.271 -13.775,8.264 2.332,9.962 8.688,13.563 8.477,3.602 6.782,-2.755 2.754,-5.51 14.2,-10.808 2.755,2.33 22.253,0.849 4.45,-3.602 0.423,-6.36 -1.482,-2.753 -1.061,-17.167 -7.417,-14.835 1.272,-6.57 4.45,2.332 12.504,11.655 6.146,0.425 6.781,-2.756 6.783,-5.086 3.39,-11.02 19.922,1.271 12.08,-4.661 9.748,-9.114 6.994,-13.14 1.694,-15.47 -1.483,-18.015 -3.814,-16.105 -3.815,-5.086 -5.297,-1.696 -9.326,10.172 -8.477,2.967 -7.418,-12.292 -7.417,-6.781 -4.027,-2.543 -16.107,-13.352 -12.927,-6.994 -12.928,-1.059 -15.046,2.543 -13.14,4.873 -9.113,7.418 -7.205,8.69 -7.417,2.12 -12.929,12.291"
           style="fill:#afaccc;fill-opacity:1"
           inkscape:connector-curvature="0" />
        <path
           id="path4"
           d="m 45.747,80.435 c -14.522,16.939 -11.296,37.481 -7.271,57.61 a 92899.4,92899.4 0 0 0 -6.444,-16.28 l -2.375,-14.927 c 0.226,-5.088 0.451,-10.176 0.679,-15.263 L 36.44,76.99 45.598,63.422 59.844,51.552 75.446,45.107 93.763,42.733 76.803,62.066 C 63.185,66.482 55.156,69.458 45.746,80.435"
           inkscape:connector-curvature="0"
           style="fill:#ffffcc" />
        <path
           id="path6"
           d="m 114.114,28.825 c -10.095,9.85 -15.61,17.28 -22.036,28.813 -4.595,8.25 -9.75,16.197 -14.583,24.332 -2.443,4.118 -2.674,7.57 -3.405,12.319 l -7.123,-8.48 c 1.132,-3.392 2.262,-6.784 3.392,-10.175 l 11.533,-20.69 24.422,-24.083 c 2.6,-0.679 5.2,-1.356 7.8,-2.036 m 49.861,-24.42 c -8.087,3.031 -21.515,4.03 -22.447,13.31 -0.663,6.592 0.497,9.904 4.47,16.878 -9.813,-10.155 -12.24,-8.584 -31.205,-5.428 l 8.14,-11.532 14.246,-8.82 18.317,-4.07 8.48,-0.338"
           inkscape:connector-curvature="0"
           style="fill:#ffffcc" />
        <path
           id="path8"
           d="m 186.288,129.945 c 2.692,1.662 2.634,2.866 2.184,4.005 2.123,-0.85 4.247,-1.7 6.37,-2.547 l 4.128,-5.543 3.063,-7.896 -3.915,-2.943 -17.11,2.184 c -0.422,1.152 -0.848,2.305 -1.273,3.459 0.121,1.637 0.244,3.276 0.364,4.913 0.546,0.972 1.093,1.942 1.64,2.913 0.849,0.424 1.697,0.85 2.547,1.274 0.669,0.06 1.335,0.122 2.002,0.181 m -1.592,-29.259 c -8.577,2.475 -8.51,3.157 -11.042,11.666 3.343,-5.364 5.818,-8.071 11.042,-11.666 M 241.72,37.015 c -1.524,0.705 -3.01,1.043 -3.962,2.438 -2.052,3.002 -3.81,5.527 -7.203,7.634 -1.709,1.062 -3.476,1.75 -5.288,2.315 -1.503,0.467 -2.407,0.049 -3.686,0.97 0.76,0.13 1.519,0.264 2.278,0.397 h 5.02 l 6.189,-3.821 3.64,-3.823 3.012,-6.11 M 105.108,56.047 c -3.373,9.233 -6.322,17.147 -11.432,25.505 6.548,-7.056 10.519,-13.054 14.27,-21.031 1.458,-3.1 1.733,-6.736 5.792,-5.384 0.182,3.096 0.836,6.188 1.018,9.282 2.193,-15.718 8.377,-22.293 22.752,-28.394 l -12.195,1.457 -11.468,2.548 -5.642,8.19 -3.095,7.827 m 27.849,-0.364 c 3.1,14.59 7.564,28.594 9.503,43.416 1.259,9.631 1.396,14.258 -3.449,22.568 -5.296,-0.343 -8.584,0.254 -13.707,1.933 -20.393,6.685 -32.09,16.515 -45.83,-3.291 l 13.16,6.202 c 3.127,-0.615 6.254,-1.228 9.38,-1.845 5.522,-3.214 11.043,-6.43 16.565,-9.645 l 12.922,-2.55 L 135.688,95 132.593,71.883 c -0.12,-3.64 -0.242,-7.28 -0.364,-10.92 0.244,-1.76 0.487,-3.52 0.728,-5.279 m 35.129,90.279 c -1.713,11.854 3.945,18.226 1.602,21.5 -0.663,0.926 -1.562,2.544 -2.565,2.988 -3.585,1.583 -8.514,-0.297 -8.865,0.63 h -11.831 l -4.732,-2.002 7.28,-8.555 c 2.366,-5.156 4.733,-10.314 7.098,-15.472 l 4.55,-15.652 h 2.367 l 5.096,16.563"
           style="fill:#948fc7;fill-opacity:1"
           inkscape:connector-curvature="0" />
        <path
           id="path10"
           d="m 148.201,111.502 c 0.961,5.382 2.63,6.661 5.162,11.871 -1.685,8.5 -4.392,18.607 -7.65,26.107 -1.374,3.163 -2.482,4.907 -4.906,7.351 -4.09,4.13 -8.223,7.726 -12.86,11.306 -3.34,2.573 -5.67,1.283 -9.789,0.7 -1.752,3.175 -2.235,4.94 -5.46,6.552 -4.958,2.478 -9.395,-2.863 -13.287,-6.007 2.81,4.39 5.62,8.777 8.428,13.166 1.942,1.82 3.884,3.639 5.825,5.46 l 4.915,0.729 6.551,-4.006 c 1.154,-2.183 2.306,-4.368 3.459,-6.551 2.427,-1.82 4.855,-3.64 7.28,-5.462 2.974,-2.547 5.947,-5.096 8.92,-7.644 l 5.642,-8.009 5.095,-9.464 c 2.186,-6.552 4.37,-13.105 6.555,-19.657 0.181,-2.488 0.362,-4.975 0.545,-7.464 -2.73,-1.212 -5.46,-2.427 -8.191,-3.64 -2.002,-1.88 -4.232,-3.457 -6.234,-5.338 m -65.298,37.919 c 9.186,0 18.888,-0.51 27.303,-4.369 2.38,-3.57 4.731,-6.488 7.644,-9.645 -2.651,5.008 -3.483,7.838 -4.186,13.468 l -2.73,4.005 c -6.917,0.181 -13.833,0.363 -20.75,0.546 -2.246,-0.244 -4.49,-0.486 -6.735,-0.728 -0.243,-0.245 -0.485,-0.487 -0.728,-0.729 0.062,-0.85 0.122,-1.699 0.182,-2.548 m -1.273,-6.37 -0.714,-6.464 c -1.569,9.448 -1.192,15.78 -5.54,24.243 -3.248,3.762 -7.247,7.186 -11.827,9.019 0.387,2.32 0.503,3.77 0.278,5.471 -0.807,6.12 -13.047,3.416 -18.083,3.172 l 24.236,6.24 5.46,-2.184 c 0.608,-3.518 1.215,-7.039 1.821,-10.557 l 5.096,-9.464 0.91,-5.825 -1.638,-13.65 M 67.977,89.72 c -0.253,4.595 -0.55,6.51 1.476,10.566 2.575,5.156 5.737,10.002 8.535,15.098 l 0.91,-10.193 c -3.639,-5.158 -7.28,-10.314 -10.92,-15.47 m -37.364,34.7 c -0.789,1.676 -1.575,3.354 -2.364,5.031 2.168,7.305 4.097,11.932 8.226,18.313 -0.72,2.585 -1.258,3.716 -2.912,5.823 -3.634,-0.558 -6.861,-0.72 -10.544,-0.708 4.065,3.153 8.13,6.31 12.195,9.465 2.002,-0.366 4.005,-0.73 6.007,-1.093 l 6.007,-6.006 -8.555,-13.288 C 35.986,136.113 33.3,130.266 30.614,124.421 M 241.746,34.599 c 2.476,11.137 5.67,21.416 5.373,32.824 -0.364,13.995 -3.091,31.674 -16.059,40.113 -14.522,9.452 -31.57,4.981 -47.503,0.931 l 19.476,8.009 c 6.067,0.304 12.135,0.608 18.202,0.91 4.126,-1.213 8.252,-2.426 12.376,-3.64 3.216,-2.67 6.432,-5.338 9.648,-8.009 l 7.28,-15.288 2.73,-17.656 c -0.727,-5.765 -1.457,-11.528 -2.184,-17.292 l -4.004,-17.109 c -1.778,-1.265 -3.556,-2.53 -5.335,-3.793 M 25.028,67.795 c -6.592,4.291 -9.182,6.175 -8.459,14.128 l 1.97,7.145 2.793,1.89 3.45,1.15 6.242,-1.479 c 1.069,-3.313 2.136,-6.625 3.203,-9.938 l -8.87,4.354 h -2.053 a 7094.7,7094.7 0 0 0 -2.3,-3.532 l 2.793,-4.107 1.478,-7.803 c 0.63,0.191 1.26,0.384 1.889,0.574 0.767,0.604 1.533,1.206 2.3,1.807 l -0.329,-4.106 -1.56,-2.628 c -0.52,-0.44 -1.04,-0.876 -1.56,-1.315 l -0.987,3.86 M 172.938,5.13 c 5.852,5.434 13.033,10.156 17.713,16.796 1.811,2.57 3.823,3.885 -0.03,7.516 4.071,-1.163 5.585,-1.037 8.845,-0.642 5.93,0.718 11.488,9.148 11.842,15.188 -0.07,0.565 -1.647,1.848 -6.232,3.114 -0.09,0.176 -2.588,-0.342 -2.526,-0.172 0.477,1.303 1.113,1.503 2.086,2.112 0.21,1.45 0.346,3.687 1.334,5.273 2.885,-0.052 5.705,0.263 8.53,0.822 0.95,1.577 0.808,3.154 0.728,4.732 l 3.276,-0.545 c -0.302,-2.488 -0.606,-4.975 -0.909,-7.463 0.97,-1.638 1.94,-3.277 2.912,-4.913 l -4.187,-9.466 c -2.669,-2.548 -5.338,-5.097 -8.009,-7.645 l -0.77,-0.038 a 71383.19,71383.19 0 0 1 -9.007,-5.528 L 183.844,12.253 172.938,5.13 m 9.857,44.847 c -0.309,0.54 -0.775,1.402 -1.372,2 2.437,2.305 3.64,3.849 4.509,7.11 -2.756,1.367 -5.51,2.736 -8.265,4.102 l -6.994,6.705 c -3.069,-1.652 -3.833,-2.92 -5.318,-6.07 -1.73,0.459 -3.367,0.9 -4.795,0.375 0.906,0.007 1.462,-0.219 2.368,-0.779 l 4.45,-4.623 c 2.62,-1.984 5.24,-3.97 7.86,-5.953 l 5.145,-1.677 c 0.655,-0.269 1.757,-0.92 2.412,-1.19"
           style="fill:#948fc7;fill-opacity:1"
           inkscape:connector-curvature="0" />
        <path
           id="path12"
           d="m 190.4,58.199 c -8.766,4.72 -17.16,9.466 -21.642,18.429 0,-11.377 11.423,-16.385 21.641,-18.43 m -23.381,-22.38 c -6.509,4.438 -11.111,13.394 -10.533,22.122 -2.12,-7.558 -1.369,-14.699 5.14,-19.919 1.1,-0.533 2.197,-1.068 3.296,-1.601 0.699,-0.2 1.397,-0.4 2.097,-0.602"
           style="fill:#948fc7;fill-opacity:1"
           inkscape:connector-curvature="0" />
        <path
           id="path14"
           d="m 254.605,56.424 c -1.18,-7.443 -3.137,-14.668 -5.853,-19.863 -0.33,-0.635 -0.832,-1.279 -1.454,-1.893 -1.349,-1.33 -3.346,-2.59 -5.409,-3.299 -2.186,-0.752 -4.491,-0.905 -6.321,0.051 -0.475,0.25 -0.917,0.57 -1.31,0.97 -1.185,1.2 -2.185,2.66 -3.186,4.121 -1.113,1.628 -2.233,3.264 -3.573,4.407 -1.553,1.328 -3.496,2.134 -5.329,2.87 a 36.122,36.122 0 0 0 -2.773,-5.391 c -1.253,-1.998 -2.68,-3.869 -4.25,-5.74 a 23.555,23.555 0 0 0 -3.881,-3.703 c -1.354,-1.033 -2.74,-1.903 -4.354,-2.913 -4.327,-2.71 -8.012,-5.942 -11.77,-9.24 -1.708,-1.498 -3.433,-3.01 -5.12,-4.401 -8.95,-7.38 -17.298,-10.959 -26.226,-11.52 -8.867,-0.558 -18.23,1.878 -29.285,6.532 -5.336,2.245 -9.298,4.899 -12.75,8.09 -3.297,3.05 -6.096,6.562 -9.173,10.663 -1.79,0.127 -3.376,0.392 -4.995,1.04 -1.784,0.714 -3.58,1.87 -5.732,3.769 a 129.576,129.576 0 0 0 -4.4,4.067 151.876,151.876 0 0 0 -3.874,3.897 c -10.064,1.617 -18.264,3.402 -25.608,6.246 -7.51,2.91 -14.13,6.912 -20.929,12.94 a 55.038,55.038 0 0 0 -7.287,7.823 c -2.068,2.709 -3.838,5.557 -5.391,8.56 -1.36,1.505 -2.723,3.024 -4.198,4.353 -1.438,1.295 -2.971,2.386 -4.689,3.047 l 0.001,0.001 c -0.999,0.385 -1.412,0.61 -1.457,0.595 -0.05,-0.028 -0.078,-0.178 -0.148,-0.454 2.467,-2.354 2.855,-5.813 3.083,-9.247 0.296,0.354 0.58,0.79 0.875,1.246 0.326,0.503 0.66,1.022 1.06,1.527 l 1.675,2.113 0.588,-2.636 c 0.494,-2.209 0.864,-5.15 0.288,-7.7 -0.372,-1.655 -1.14,-3.13 -2.478,-4.175 0.128,-0.334 0.249,-0.642 0.368,-0.946 0.42,-1.075 0.853,-2.178 1.22,-3.22 l 0.726,-2.065 -2.16,0.374 c -2.874,0.5 -9.05,3.894 -13.4,8.407 -1.615,1.677 -3.004,3.53 -3.915,5.474 -0.948,2.023 -1.373,4.14 -1.005,6.258 0.32,1.852 1.247,3.67 2.93,5.384 0.307,1.237 0.59,2.31 0.893,3.278 0.347,1.101 0.72,2.086 1.187,3.056 1.266,2.632 3.284,4.24 5.62,4.99 1.877,0.603 3.953,0.633 5.989,0.187 a 54.687,54.687 0 0 0 -0.746,7.335 c -0.129,3.435 -0.003,7.23 0.375,11.634 0.083,0.967 0.208,2.03 0.369,3.186 0.14,0.986 0.306,1.954 0.485,2.915 -0.38,1.038 -0.763,2.078 -1.145,3.116 l -1.777,4.837 -3.91,3.875 c -1.217,1.203 -2.434,2.409 -3.65,3.614 -0.1,0.1 -0.511,0.494 -0.883,0.853 -2.465,2.372 -2.953,2.843 -2.253,7.017 a 25.45,25.45 0 0 0 2.583,7.65 c 1.21,2.305 2.834,4.549 4.918,6.639 2.6,2.606 6.862,5.844 11.324,7.54 2.55,0.968 5.178,1.442 7.645,1.046 -0.126,0.38 -0.248,0.758 -0.387,1.14 a 43.089,43.089 0 0 1 -1.3,3.198 c -3.027,6.635 0.08,10.1 4.916,12.305 2.415,1.1 5.286,1.848 7.953,2.544 0.546,0.14 1.092,0.284 1.78,0.47 3.16,0.854 8.621,2.423 13.609,2.738 5.444,0.344 10.354,-0.78 11.67,-5.666 0.52,-1.937 0.823,-3.42 0.946,-4.873 0.113,-1.348 0.07,-2.71 -0.088,-4.396 1.552,-3.44 2.21,-4.407 3.345,-6.066 0.222,-0.328 0.491,-0.72 0.572,-0.844 1.217,-1.803 1.787,-3.083 1.994,-4.524 0.2,-1.391 0.03,-2.777 -0.221,-4.895 -0.024,-0.201 -0.06,-0.495 -0.113,-0.884 a 78.13,78.13 0 0 0 9.452,0.648 c 1.586,0.01 3.171,-0.037 4.756,-0.12 -0.405,0.207 -0.802,0.413 -1.236,0.636 l -0.59,0.303 c -4.204,2.162 -4.379,6.257 -3.063,10.47 1.186,3.799 3.628,7.678 5.16,10.037 3.22,4.963 6.293,9.164 10.019,11.447 3.905,2.393 8.367,2.675 14.126,-0.442 2.93,-1.586 3.854,-3.203 5.098,-5.383 0.381,-0.665 0.801,-1.39 1.269,-2.105 1.21,-0.802 4.223,-3.287 7.18,-5.732 1.007,-0.832 2.013,-1.66 3.148,-2.585 0.782,0.575 1.726,0.974 2.867,1.246 1.482,0.355 3.247,0.515 5.362,0.667 1.583,0.116 6.745,0.112 10.08,0.111 1.03,0 1.885,0 2.398,0.003 3.443,0.021 6.222,-0.16 8.322,-1.35 2.238,-1.269 3.565,-3.516 3.855,-7.546 0.126,-1.79 0.15,-2.894 -0.099,-4.021 -0.232,-1.056 -0.685,-2.013 -1.463,-3.413 a 9145.09,9145.09 0 0 1 -0.14,-5.225 c -0.048,-1.847 -0.1,-3.696 -0.148,-5.543 -0.059,-2.178 -0.299,-3.948 -0.741,-5.689 -0.438,-1.729 -1.064,-3.392 -1.902,-5.388 a 90.666,90.666 0 0 1 -1.478,-3.806 l -1.208,0.442 0.186,-0.068 1.022,-0.374 v -0.005 c -0.72,-1.942 -1.43,-3.833 -2.424,-5.856 0.064,-0.39 0.129,-0.81 0.192,-1.258 l 1.92,1.85 2.83,2.727 c 2.158,2.079 4.131,3.97 6.449,5.336 2.397,1.415 5.092,2.236 8.582,2.07 3.654,-0.172 7.564,-1.711 10.783,-4.086 3.114,-2.299 5.613,-5.399 6.656,-8.83 l 0.904,-2.976 0.722,-2.375 c 5.124,0.868 10.624,1.148 15.936,0.592 5.126,-0.539 10.078,-1.844 14.349,-4.122 6.278,-3.35 10.985,-8.284 14.368,-14.143 h 0.002 c 3.78,-6.548 5.897,-14.264 6.701,-22.204 0.645,-6.368 0.293,-15.025 -1.033,-23.374 z m -66.387,53.518 c -2.953,-0.994 -5.006,-2.444 -7.6,-4.079 0.706,3.183 1.027,6.549 0.087,9.726 -1.492,5.042 -3.902,13.29 2.943,14.812 2.605,0.578 3.787,0.495 7.464,-1.403 -2.976,0.674 -4.477,0.51 -6.523,0.13 -1.854,-0.341 -2.837,-1.518 -3.355,-2.907 0.648,0.467 1.704,0.721 3.51,1.156 5.074,1.224 9.909,-1.22 10.855,-4.738 0.55,-2.056 0.457,-3.136 1.626,-5.938 1.05,0.325 2.135,0.62 3.249,0.89 l -1.886,6.149 c -1.63,5.32 -7.985,9.61 -13.595,9.511 -5.186,-0.091 -8.475,-3.34 -12.056,-6.525 -2.466,-2.196 -4.84,-4.295 -7.192,-6.375 -6.455,-2.037 -11.629,-4.417 -17.62,-8.852 4.264,5.01 7.155,7.784 13.101,10.277 -0.864,8.82 -3.93,15.252 -6.543,23.693 -1.184,3.816 -10.521,19.111 -13.109,20.602 -1.845,1.063 -13.403,10.797 -15.576,12.082 -1.62,2.15 -3.041,5.122 -5.476,6.408 -7.418,3.923 -12.185,-3.588 -16.177,-9.931 -1.817,-2.89 -6.865,-11.214 -2.465,-13.546 4.16,-2.203 6.49,-3.777 10.735,-6.565 0.624,1.137 1.693,2.235 2.39,3.37 l -0.462,-3.726 c -0.28,-2.25 -0.268,-4.077 -0.09,-6.341 0.174,-2.192 0.346,-4.384 0.518,-6.577 -0.639,2.229 -1.915,4.457 -2.552,6.684 -0.255,0.892 -0.466,1.612 -0.588,2.28 -9.524,1.946 -18.979,2.067 -28.505,0.368 -0.608,-3.527 -1.348,-7.202 -1.969,-9.837 -0.188,2.95 -0.067,11.108 -0.082,15.676 -0.012,3.538 -0.16,4.75 -1.986,7.76 -1.708,2.818 -2.431,3.458 -4.824,8.22 0.2,3.005 0.203,4.99 -0.595,7.842 -1.327,4.741 -14.72,1.068 -18.252,0.1 -4.351,-1.19 -13.345,-2.96 -11.083,-8.76 1.99,-5.104 3.252,-10.486 4.225,-17.628 C 40.789,142.467 33.377,126.732 31.954,112.79 30.849,101.965 31.512,95.302 33.854,88.68 37.566,78.188 42.76,69.106 51.092,61.793 62.332,51.93 72.838,47.97 89.29,45.465 c -3.956,4.43 -7.87,9.112 -12.136,14.133 -4.319,5.083 -6.884,10.217 -9.627,15.778 -3.788,7.679 -3.706,10.601 1.315,17.343 4.327,5.81 6.663,8.425 8.553,14.11 -1.56,3.216 -2.128,5.935 -2.652,10.326 5.298,5.793 9.236,9.761 14.38,10.983 5.047,1.2 9.26,0.968 13.776,-1.34 10.027,-5.126 19.305,-11.746 30.616,-12.02 5.233,-12.864 4.704,-23.614 2.192,-36.061 -1.716,-8.501 -2.405,-16.55 -2.938,-25.216 -2.121,8.925 -2.52,16.773 -0.946,25.664 1.898,10.713 3.373,22.55 -1.905,31.966 -10.229,0.783 -18.994,7.006 -28.212,11.78 -3.706,1.92 -7.564,2.107 -11.665,0.981 -3.807,-1.046 -6.376,-3.565 -10.477,-8.295 -0.065,-4.749 1.007,-6.94 3.188,-11.242 3.504,-6.907 7.371,-13.336 11.615,-20.131 -5.196,6.272 -10.12,11.513 -14.21,17.82 -1.564,-4.454 -3.8,-6.716 -7.503,-11.732 -3.617,-4.899 -3.995,-7.043 -1.29,-12.713 2.719,-5.697 5.025,-10.704 9.654,-15.702 7.997,-8.637 15.324,-18.249 24.07,-26.755 4.749,-4.618 6.677,-4.459 12.976,-5.413 5.694,-0.864 11.252,-1.953 17.058,-3.301 -5.615,0.523 -11.043,0.715 -16.51,0.85 l -0.17,0.005 c 5.38,-6.869 8.501,-10.697 17.236,-14.493 21.508,-9.34 35.174,-10.35 52.069,3.851 4.379,3.682 8.203,7.255 12.642,10.43 -1.61,0.138 -2.997,0.427 -4.832,1.147 2.233,-0.426 4.812,-0.004 7.13,0.42 0.65,0.422 1.32,0.834 2.003,1.237 3.135,1.847 4.914,2.867 7.034,5.82 2.24,3.121 4.108,6.24 5.753,9.678 -1.078,-0.386 -1.983,-0.711 -2.789,-0.95 a 6.003,6.003 0 0 0 -5.657,0.35 l -0.13,0.06 c -1.734,0.845 -4.42,1.807 -6.217,2.099 0.917,0.316 2.945,0.435 3.901,0.056 0.128,-0.05 0.258,-0.09 0.392,-0.121 a 5.999,5.999 0 0 0 -0.8,2.468 6,6 0 0 0 0.641,3.335 l 0.005,0.011 c 0.162,0.382 0.388,0.733 0.636,0.987 -0.821,0.303 -1.66,0.649 -2.525,1.024 4.009,-0.61 7.623,-0.715 11.534,-0.2 0.258,1.233 0.518,2.54 0.76,3.869 l -1.454,0.114 a 5.165,5.165 0 0 0 -0.117,0.01 c -1.851,-1.479 -3.913,-1.23 -6.73,-0.587 -8.568,1.953 -6.555,6.76 -10.495,14.004 4.092,-5.002 3.788,-10.236 10.457,-11.816 1.554,-0.367 2.612,-0.828 3.664,-0.67 -1.893,0.952 -3.53,2.531 -4.18,4.364 -1.83,5.169 -0.694,9.524 -2.705,14.352 2.49,-4.316 2.641,-8.528 4.869,-13.07 0.8,-1.63 3.768,-4.24 5.59,-4.28 l 1.5,-0.033 c 0.44,2.872 0.707,5.725 0.537,8.091 -0.311,4.318 -1.433,10.727 -2.104,13.18 2.256,-2.901 3.284,-9.044 4.275,-13.37 1.032,-4.502 0.771,-9.905 -0.132,-14.743 -1.24,-6.637 5.596,-5.557 9.564,-8.685 2.917,-2.3 4.926,-5.971 7.6,-8.573 2.653,-2.58 6.83,1.211 7.873,3.732 4.524,10.947 6.585,28.168 5.391,39.203 -1.342,12.382 -7.322,25.899 -18.243,31.995 -13.922,7.77 -30.337,3.023 -44.17,-1.637 z m -19.782,54.994 c -0.454,5.109 -2.157,5.446 -6.643,5.368 -2.038,-0.036 -10.154,-0.073 -12.214,-0.25 -2.91,-0.251 -4.544,-0.511 -5.433,-1.175 4.572,-3.356 12.34,-17.212 13.855,-21.983 1.602,-5.04 3.355,-9.438 4.659,-14.096 0.6,1.947 1.073,3.876 1.946,5.944 1.457,3.456 2.17,5.591 2.274,9.298 l 0.33,11.733 c 1.253,2.192 1.448,2.66 1.226,5.16 z M 30.843,126.234 c 2.903,10.043 7.849,19.912 13.332,28.209 v 0.145 c -0.345,1.427 -0.742,2.815 -1.575,3.93 -3.92,5.244 -13.888,-2.453 -16.774,-5.397 -3.154,-3.222 -5.265,-7.035 -5.768,-10.613 -0.366,-2.608 -0.01,-2.672 1.81,-4.518 l 7.362,-7.453 z m -5.545,-63.16 c -0.744,1.597 -1.272,2.808 -1.631,4.054 -1.563,5.398 0.707,10.216 -4.194,14.129 2.303,4.646 2.197,6.5 7.554,4.353 2.066,-0.83 3.77,-1.99 5.292,-3.364 a 99.36,99.36 0 0 0 -2.031,5.806 c -0.106,0.33 -0.207,0.663 -0.304,0.993 -3.831,1.626 -8.87,2.659 -10.798,-1.367 -0.936,-1.955 -1.465,-3.873 -2.148,-6.343 -6.309,-6.536 3.122,-15.166 8.26,-18.261 z m 3.101,6.924 c -0.779,-0.78 -1.402,-1.307 -2.409,-1.193 0.085,-0.66 0.198,-1.297 0.357,-1.895 0.08,-0.308 0.166,-0.61 0.258,-0.913 1.306,0.761 1.65,2.14 1.794,4 z M 217.577,45.584 c 0.238,0.502 0.472,1.013 0.702,1.53 -0.19,0.14 -0.371,0.287 -0.54,0.442 a 6.096,6.096 0 0 0 -1.321,-1.938 c 0.376,-0.014 0.762,-0.026 1.16,-0.034 z M 35.433,75.253 35.432,75.252 v 0.001 z m -20.536,6.939 z m 69.035,72.169 h 0.002 z m 56.863,16.976 h -10e-4 z m 23.11,-43.927 h 0.002 l -0.001,0.001 z M 25.95,83.11 H 25.949 L 25.906,83 l 0.043,0.111 z m 221.854,18.238 0.03,0.018 z M 3.688,81.538 C 4.692,70.171 6.902,65.263 14.978,56.708 4.848,63.846 2.32,67.09 3.688,81.537"
           style="fill:#4c496c;fill-opacity:1"
           inkscape:connector-curvature="0" />
        <path
           id="path16"
           d="M 1.075,72.253 C 2.19,67.137 3.23,65.206 6.385,61.007 1.266,64.582 0.6,66.05 1.074,72.253 M 119.925,0.934 c -6.069,1.463 -7.226,2.585 -9.046,8.534 2.904,-4.356 4.576,-5.773 9.046,-8.534"
           inkscape:connector-curvature="0" />
        <path
           id="path18"
           d="m 129.495,0.068 c -12.037,2.95 -15.574,5.048 -19.572,18.999 5.082,-10.218 8.93,-13.98 19.572,-19 m 25.924,50.857 c 1.283,-5.684 3.563,-11.161 12.39,-15.399 -11.7,2.93 -13.894,7.845 -12.39,15.4 m 74.448,0.392 c 6.929,-2.47 10.269,-8.041 11.928,-14.595 -2.712,5.493 -6.897,10.087 -12.582,12.901 -3.051,1.51 -5,0.983 -8.407,0.66 3.465,0.995 5.66,2.246 9.061,1.034 m -47.202,5.57 a 7.873,7.873 0 0 0 -4.413,-4.009 c 1.7,-0.907 3.369,-1.86 4.671,-3.045 -3.815,1.766 -8.256,1.335 -11.53,3.546 -2.883,1.948 -6.863,8.12 -9.793,10.737 2.122,-0.824 4.167,-2.249 6.05,-3.75 a 7.847,7.847 0 0 0 4.223,6.903 17.701,17.701 0 0 0 -2.558,4.67 c 5.579,-6.612 13.668,-11.606 21.274,-13.741 -2.126,-0.03 -4.643,0.367 -7.207,1.21 a 7.832,7.832 0 0 0 -0.717,-2.521 m -8.027,49.962 c -0.271,1.712 -0.643,3.84 -0.914,5.553 0.725,-1.938 1.597,-4.19 2.44,-6.038 0.894,-1.956 1.397,-2.14 3.294,-3.172 1.345,-0.732 3.787,-1.738 5.132,-2.47 -1.384,0.233 -3.864,0.742 -5.248,0.975 -3.696,0.624 -4.131,1.512 -4.704,5.152 M 111.5,40.746 c -4.29,4.24 -8.457,18.79 -9.788,24.612 2.097,-4.836 7.345,-18.364 11.371,-21.805 1.112,-0.951 1.889,-1.535 2.724,-1.96 -2.882,4.833 -2.67,6.035 -1.659,12.51 0.859,-6.583 3.135,-9.126 6.87,-14.037 4.094,-1.027 7.926,-2.258 12.126,-3.896 a 777.87,777.87 0 0 1 -14.205,1.474 c -3.978,0.377 -4.619,0.313 -7.44,3.102"
           inkscape:connector-curvature="0" />
        <path
           id="path20"
           d="m 169.94,65.514 a 3.293,3.293 0 0 1 1.556,-4.386 3.305,3.305 0 0 1 4.578,2.027 c -1.566,1.163 -3.001,2.531 -4.205,4.117 -0.81,-0.326 -1.528,-0.918 -1.93,-1.758 m 36.634,-14.172 c 0.132,-1.355 1.287,-2.354 2.642,-2.223 a 2.478,2.478 0 0 1 2.224,2.697 2.48,2.48 0 0 1 -0.223,0.807 c -1.24,0.213 -2.48,0.575 -3.758,1.045 -0.534,-0.547 -0.96,-1.545 -0.885,-2.326"
           inkscape:connector-curvature="0"
           style="fill:#ffffcc" />
      </g>
    </g>
  </g>
</svg>
