<?xml version="1.0" encoding="UTF-8" standalone="no"?>
<!-- Created with Inkscape (http://www.inkscape.org/) -->

<svg
   xmlns:dc="http://purl.org/dc/elements/1.1/"
   xmlns:cc="http://creativecommons.org/ns#"
   xmlns:rdf="http://www.w3.org/1999/02/22-rdf-syntax-ns#"
   xmlns:svg="http://www.w3.org/2000/svg"
   xmlns="http://www.w3.org/2000/svg"
   xmlns:sodipodi="http://sodipodi.sourceforge.net/DTD/sodipodi-0.dtd"
   xmlns:inkscape="http://www.inkscape.org/namespaces/inkscape"
   width="43.535606mm"
   height="34.25618mm"
   viewBox="0 0 43.535606 34.25618"
   version="1.1"
   id="svg4499"
   inkscape:version="0.92.1 r15371">
  <defs
     id="defs4493" />
  <sodipodi:namedview
     id="base"
     pagecolor="#ffffff"
     bordercolor="#666666"
     borderopacity="1.0"
     inkscape:pageopacity="0.0"
     inkscape:pageshadow="2"
     inkscape:zoom="0.35"
     inkscape:cx="-390.58506"
     inkscape:cy="-186.69248"
     inkscape:document-units="px"
     inkscape:current-layer="layer1"
     showgrid="false"
     fit-margin-top="0"
     fit-margin-left="0"
     fit-margin-right="0"
     fit-margin-bottom="0"
     inkscape:window-width="1366"
     inkscape:window-height="705"
     inkscape:window-x="-8"
     inkscape:window-y="-8"
     inkscape:window-maximized="1" />
  <metadata
     id="metadata4496">
    <rdf:RDF>
      <cc:Work
         rdf:about="">
        <dc:format>image/svg+xml</dc:format>
        <dc:type
           rdf:resource="http://purl.org/dc/dcmitype/StillImage" />
        <dc:title></dc:title>
      </cc:Work>
    </rdf:RDF>
  </metadata>
  <g
     inkscape:label="Layer 1"
     inkscape:groupmode="layer"
     id="layer1"
     transform="translate(-83.309559,-65.181433)">
    <path
       style="fill:#afaccc;fill-opacity:1;fill-rule:evenodd;stroke:none;stroke-width:0.10884164"
       inkscape:connector-curvature="0"
       id="path6415"
       d="m 94.427679,65.251308 c -0.60625,0.225303 -1.14502,0.705621 -1.44455,1.287488 -0.25621,0.497733 -0.51798,1.527048 -0.58383,2.295796 -0.044,0.512645 0.0402,2.376993 0.2006,4.444331 0.0295,0.379095 0.0628,0.811741 0.0741,0.961398 0.0746,0.982622 -0.13736,1.69597 -0.70333,2.367632 -0.30531,0.362443 -0.69899,0.862679 -1.01822,1.294345 -0.17654,0.23858 -0.56924,0.765374 -0.8728,1.170483 -0.93462,1.247651 -1.29772,1.755071 -1.86424,2.605124 -1.90984,2.865691 -3.31074,5.727791 -4.22295,8.628203 -0.67253,2.138521 -0.82142,3.54127 -0.56423,5.31528 0.0353,0.242935 0.10492,0.809131 0.15477,1.258102 0.10863,0.977614 0.13137,1.062839 0.38236,1.43301 0.50492,0.74491 1.31209,1.18474 2.05319,1.118566 0.87269,-0.07793 1.50343,-0.355151 2.48562,-1.092664 1.08972,-0.81838 1.95044,-1.33146 3.87781,-2.311905 1.9081,-0.970539 2.90444,-1.616406 4.08156,-2.645831 0.47858,-0.418496 1.22153,-1.197366 1.1769,-1.233828 -0.004,-0.003 -0.31499,-0.07652 -0.69158,-0.163373 -1.46588,-0.337735 -1.67888,-0.422521 -1.82919,-0.727932 -0.16163,-0.328375 0.0185,-0.71879 0.517,-1.120742 0.33284,-0.268186 1.24874,-1.086893 1.52585,-1.363786 0.3878,-0.387476 0.49882,-0.527229 1.16667,-1.469688 0.66415,-0.937018 1.29304,-1.450642 2.108591,-1.722093 0.54301,-0.180677 0.68189,-0.193085 2.26609,-0.202772 2.08649,-0.01273 1.85291,0.08109 3.6734,-1.476328 1.34735,-1.15285 1.9191,-1.580815 2.57868,-1.930523 1.92823,-1.022459 3.30562,-1.308603 5.10368,-1.060445 2.56562,0.354171 4.79861,1.622394 6.71902,3.816097 0.54726,0.625186 0.68353,0.8137 0.71062,0.983057 0.0256,0.159889 -0.11853,0.197113 -0.24913,0.06433 -0.0366,-0.03722 -0.56151,-0.586003 -1.16667,-1.21957 -0.60516,-0.633568 -1.10584,-1.153939 -1.11269,-1.156334 -0.007,-0.0025 -0.1662,0.223996 -0.35418,0.503392 -0.5207,0.773647 -0.60788,0.884012 -1.21826,1.541851 -0.57261,0.617132 -0.82414,0.94148 -0.96226,1.241012 -0.43417,0.941045 -0.1771,2.199907 0.55791,2.732361 0.0938,0.06803 0.0835,0.07053 0.17067,-0.04147 0.11003,-0.141168 0.1268,-0.183398 0.16728,-0.42187 0.0793,-0.467149 0.26287,-0.680152 0.58591,-0.680152 0.0946,0 0.17001,-0.04506 0.22094,-0.131916 0.12179,-0.207887 0.34776,-0.270145 0.5108,-0.140623 0.12321,0.09796 0.19646,0.07662 0.33294,-0.09709 0.13757,-0.175017 0.41675,-0.246853 0.86474,-0.222581 0.59407,0.03222 0.81937,-0.133984 0.92473,-0.682328 0.0397,-0.207017 0.0885,-0.419693 0.11113,-0.484781 0.005,-0.0148 0.0294,0.03243 0.0539,0.105141 0.27319,0.811088 0.73675,1.035846 2.01226,0.975874 0.64728,-0.03048 1.11813,0.04745 1.59214,0.263506 0.10743,0.04898 0.30584,0.133658 0.44092,0.188296 0.8458,0.341654 1.25363,0.697784 1.45956,1.2741 0.0452,0.126148 0.0572,0.131699 0.1736,0.0788 0.20517,-0.09317 0.22955,-0.17469 0.2388,-0.799877 0.0418,-2.812032 -1.44737,-4.835942 -4.08624,-5.553317 -0.3423,-0.09306 -0.49251,-0.188405 -0.67318,-0.427313 -0.0589,-0.07782 -0.25448,-0.329245 -0.43483,-0.558792 -0.18024,-0.229547 -0.63944,-0.823495 -1.02028,-1.319922 -1.68695,-2.198383 -2.88878,-3.546604 -4.19378,-4.704244 -4.2642,-3.7829 -9.48054,-4.926608 -17.224191,-3.776478 -1.00319,0.149004 -1.44749,0.08794 -1.99539,-0.274172 -0.4197,-0.277329 -1.03095,-1.148497 -1.23013,-1.753221 -0.10253,-0.31107 -0.46584,-2.07376 -0.82829,-4.017671 -0.19482,-1.045206 -0.26339,-1.135436 -0.73032,-0.961943 m 17.926761,12.26384 c 1.90811,0.108842 3.63629,0.79585 4.7012,1.869028 0.18611,0.187535 0.43448,0.52908 0.40576,0.557814 -0.003,0.0032 -0.10242,-0.04278 -0.22074,-0.102094 -1.35835,-0.680586 -2.65627,-1.027247 -3.71617,-0.992526 -1.32744,0.04343 -1.93456,0.246635 -1.82974,0.612234 0.0411,0.143453 0.18285,0.177194 0.78671,0.187534 1.4033,0.02384 2.62265,0.27994 3.22204,0.67645 0.25261,0.16729 0.72781,0.612235 0.69189,0.648152 -0.004,0.0038 -0.19568,-0.04974 -0.42632,-0.118963 -3.12332,-0.938651 -5.58445,-0.670683 -7.90343,0.860502 -0.77745,0.513297 -2.02696,1.566666 -3.05758,2.577805 -0.59972,0.588289 -0.58176,0.579037 -1.12814,0.579255 -0.18623,1.09e-4 -0.34427,-0.0054 -0.35123,-0.01241 -0.007,-0.007 0.0853,-0.166201 0.20505,-0.353735 0.47336,-0.741647 1.08668,-1.758446 1.72678,-2.862644 0.78464,-1.353337 0.84298,-1.444002 1.215,-1.886335 1.284,-1.526721 3.41904,-2.368937 5.67892,-2.240069 m -26.351761,3.481737 c -0.22008,0.05224 -0.61844,0.480536 -0.89283,0.959983 -0.75111,1.312304 -0.97739,3.338826 -0.5171,4.631756 0.0552,0.155099 0.20723,0.486195 0.22301,0.485542 0.006,-2.18e-4 0.56837,-1.049016 1.24983,-2.330626 l 1.23895,-2.330299 -0.0417,-0.05986 c -0.19723,-0.283318 -0.87052,-1.19454 -0.91732,-1.241342 -0.10144,-0.101658 -0.22487,-0.143126 -0.34285,-0.115154 m 35.345561,2.523493 c 2.19697,0.241955 4.6312,2.508255 4.43638,4.130213 -0.0139,0.11657 -0.0183,0.116788 -0.0949,0.0038 -0.0932,-0.137358 -0.35918,-0.37953 -0.51134,-0.465515 -0.43221,-0.24435 -0.92864,-0.287342 -2.56562,-0.222255 -0.92449,0.03679 -1.16656,-0.0554 -1.42233,-0.541922 -0.2129,-0.405 -0.36996,-0.478142 -0.5009,-0.233466 -0.41054,0.767116 -0.91667,1.027465 -2.1039,1.08243 -0.70498,0.03265 -0.96478,0.145304 -1.17919,0.511012 -0.0742,0.126691 -0.0903,0.142365 -0.21246,0.206472 -0.11657,0.06117 -0.14608,0.05703 -0.22127,-0.0308 -0.15891,-0.185684 -0.16163,-0.217683 -0.0465,-0.534957 0.24152,-0.664913 0.30889,-0.760694 2.05025,-2.914343 l 0.26133,-0.32326 0.12745,0.132787 c 0.0701,0.07303 0.36756,0.385844 0.6611,0.695063 1.04902,1.105395 1.12053,1.160796 1.49799,1.160905 0.34611,2.17e-4 0.43482,-0.0886 0.43482,-0.435258 0,-0.311396 -0.0446,-0.389653 -0.64924,-1.136198 -0.20179,-0.249138 -0.74916,-1.044553 -0.73119,-1.062403 0.0374,-0.03744 0.50807,-0.05116 0.7695,-0.02231 m -16.43128,2.130248 c 0,0.02395 -0.20625,0.02721 -1.74603,0.02754 -2.05287,3.18e-4 -2.07529,0.0021 -2.58946,0.193847 -0.720201,0.268621 -1.159811,0.653485 -1.923121,1.683345 -0.93898,1.267025 -1.11998,1.49211 -1.53238,1.905599 -0.39727,0.398143 -0.73882,0.661104 -1.17897,0.907413 -0.32947,0.184486 -0.52418,0.600588 -0.36125,0.772231 0.21714,0.228785 1.36542,0.514058 2.59207,0.644016 2.435651,0.257955 5.679241,-0.54214 7.718721,-1.903858 1.15709,-0.772666 2.09847,-1.774445 2.57432,-2.73987 0.50644,-1.027356 0.53245,-1.352357 0.11864,-1.480137 -0.16239,-0.05018 -3.67254,-0.05986 -3.67254,-0.01012 m -10.378701,1.814934 c 0.20963,0.06226 0.23183,0.257955 0.0667,0.58818 -0.0975,0.195153 -0.13823,0.330334 -0.16512,0.548888 -0.12767,1.03922 -0.58839,1.719807 -1.56002,2.30494 -0.12909,0.07771 -0.34906,0.222472 -0.4887,0.321627 -1.52596,1.082757 -1.90625,1.084715 -2.04144,0.01078 -0.14791,-1.17462 0.97142,-2.826509 2.34979,-3.467803 0.62464,-0.290607 1.43671,-0.426006 1.83877,-0.306607 m -0.22444,4.399381 c 0.0668,0.02059 0.2819,0.105029 0.47804,0.18764 0.33806,0.142476 0.66241,0.257413 1.02779,0.364188 0.0898,0.02635 0.29202,0.08838 0.44941,0.138116 l 0.28625,0.09023 -0.19559,0.17295 c -0.95269,0.842759 -2.2515,1.709359 -3.76908,2.514894 -0.95203,0.505243 -1.26811,0.695499 -3.75318,2.259227 -1.91093,1.202483 -2.20078,1.336902 -3.00207,1.39252 l -0.18841,0.01307 0.0132,-0.07053 c 0.0159,-0.08479 -0.0192,-0.05997 0.22661,-0.160322 0.88576,-0.361463 1.52912,-0.862026 2.46363,-1.916703 0.38051,-0.429379 0.71204,-0.672316 1.61902,-1.185828 1.5941,-0.902626 2.46265,-1.701196 3.42351,-3.147703 0.45691,-0.687988 0.56227,-0.762542 0.9209,-0.651742 m -3.1637,0.698001 c 0.1785,0.0923 0.12082,0.345027 -0.13267,0.581538 -0.54715,0.510469 -1.08766,0.352976 -0.56805,-0.165655 0.31423,-0.313574 0.58633,-0.475094 0.70072,-0.415883"
       inkscape:transform-center-x="-3.7417733"
       inkscape:transform-center-y="-3.7417733" />
  </g>
</svg>
