<?xml version="1.0" encoding="UTF-8" standalone="no"?>
<svg
   xmlns:dc="http://purl.org/dc/elements/1.1/"
   xmlns:cc="http://creativecommons.org/ns#"
   xmlns:rdf="http://www.w3.org/1999/02/22-rdf-syntax-ns#"
   xmlns:svg="http://www.w3.org/2000/svg"
   xmlns="http://www.w3.org/2000/svg"
   xmlns:xlink="http://www.w3.org/1999/xlink"
   xmlns:sodipodi="http://sodipodi.sourceforge.net/DTD/sodipodi-0.dtd"
   xmlns:inkscape="http://www.inkscape.org/namespaces/inkscape"
   version="1.0"
   width="2399.3218pt"
   height="3897.2288pt"
   viewBox="0 0 2399.3218 3897.2288"
   preserveAspectRatio="xMidYMid meet"
   id="svg8"
   sodipodi:docname="kafkaGrayedLogo.svg"
   inkscape:version="0.92.1 r15371">
  <defs
     id="defs12">
    <linearGradient
       gradientTransform="matrix(78.858267,0,0,-59.653536,-81564.87,45228.359)"
       inkscape:collect="always"
       xlink:href="#linearGradient5054"
       id="linearGradient5399"
       x1="421.15707"
       y1="745.09741"
       x2="750.47369"
       y2="745.09741"
       gradientUnits="userSpaceOnUse" />
    <linearGradient
       inkscape:collect="always"
       id="linearGradient5054">
      <stop
         style="stop-color:#728cfd;stop-opacity:1;"
         offset="0"
         id="stop5050" />
      <stop
         style="stop-color:#f00a9d;stop-opacity:1"
         offset="1"
         id="stop5052" />
    </linearGradient>
    <linearGradient
       inkscape:collect="always"
       xlink:href="#linearGradient5054"
       id="linearGradient4503"
       x1="5"
       y1="19522.99"
       x2="23998.219"
       y2="19522.99"
       gradientUnits="userSpaceOnUse" />
  </defs>
  <sodipodi:namedview
     pagecolor="#ffffff"
     bordercolor="#666666"
     borderopacity="1"
     objecttolerance="10"
     gridtolerance="10"
     guidetolerance="10"
     inkscape:pageopacity="0"
     inkscape:pageshadow="2"
     inkscape:window-width="1366"
     inkscape:window-height="705"
     id="namedview10"
     showgrid="false"
     fit-margin-top="0"
     fit-margin-left="0"
     fit-margin-right="0"
     fit-margin-bottom="0"
     inkscape:zoom="0.045372981"
     inkscape:cx="-2070.2515"
     inkscape:cy="2595.754"
     inkscape:window-x="-8"
     inkscape:window-y="-8"
     inkscape:window-maximized="1"
     inkscape:current-layer="g6" />
  <metadata
     id="metadata2">
Created by potrace 1.15, written by Peter Selinger 2001-2017
<rdf:RDF>
  <cc:Work
     rdf:about="">
    <dc:format>image/svg+xml</dc:format>
    <dc:type
       rdf:resource="http://purl.org/dc/dcmitype/StillImage" />
    <dc:title></dc:title>
  </cc:Work>
</rdf:RDF>
</metadata>
  <g
     transform="matrix(0.1,0,0,-0.1,-0.5,3900.9134)"
     id="g6"
     style="fill:#000000;stroke:none">
    <path
       d="m 6315,39003 c -1831,-90 -3468,-1154 -4295,-2793 -285,-565 -447,-1125 -522,-1800 -17,-155 -17,-815 0,-970 96,-870 354,-1601 810,-2295 306,-467 703,-896 1145,-1238 558,-432 1221,-752 1907,-920 l 55,-13 3,-1451 2,-1450 -62,-12 C 4071,25819 2885,25201 1967,24292 1768,24095 1653,23971 1510,23800 737,22871 236,21750 65,20568 11,20193 6,20105 5,19620 c 0,-488 7,-607 60,-966 363,-2461 2100,-4510 4480,-5284 196,-64 614,-170 792,-202 l 133,-23 v -1531 -1530 l -147,-37 C 3885,9690 2655,8695 1996,7355 1785,6926 1629,6445 1551,5985 c -59,-351 -66,-444 -65,-870 0,-342 3,-413 22,-574 99,-811 362,-1536 799,-2206 299,-457 698,-889 1148,-1241 C 3589,989 3894,786 4050,698 4881,226 5806,3 6768,41 c 723,29 1363,190 2017,508 887,432 1618,1099 2131,1947 114,189 300,563 377,759 355,906 444,1898 256,2855 -152,779 -506,1539 -1012,2174 -696,874 -1683,1506 -2764,1771 l -113,27 v 1532 1533 l 101,17 c 270,47 627,142 932,246 768,263 1457,652 2098,1186 177,147 602,567 739,729 51,61 98,116 105,124 11,11 206,-123 1190,-819 647,-458 1186,-840 1197,-849 20,-16 20,-17 -6,-106 -41,-142 -92,-385 -120,-566 -74,-475 -76,-1031 -6,-1512 208,-1419 1022,-2698 2225,-3492 697,-461 1450,-731 2285,-820 211,-23 633,-31 845,-16 707,50 1329,217 1945,526 1456,728 2478,2107 2744,3705 46,275 58,411 63,743 9,532 -34,908 -157,1385 -307,1183 -1061,2247 -2077,2930 -1062,714 -2331,1000 -3601,812 -817,-121 -1607,-453 -2282,-959 -201,-151 -370,-299 -575,-506 l -200,-201 -1185,839 c -652,461 -1185,842 -1185,845 1,4 27,86 59,182 445,1349 444,2760 -6,4105 -24,72 -36,125 -31,132 4,7 536,383 1182,836 l 1175,824 195,-197 c 419,-422 825,-717 1346,-980 576,-291 1181,-462 1850,-521 205,-19 673,-16 881,5 1213,120 2295,630 3139,1480 404,407 704,830 960,1351 169,344 273,625 363,980 118,463 158,829 149,1352 -5,332 -17,468 -63,743 -338,2031 -1892,3670 -3904,4119 -170,38 -400,76 -600,98 -224,25 -791,25 -1020,0 -1047,-115 -1977,-511 -2775,-1181 -166,-140 -470,-445 -604,-606 -554,-664 -918,-1413 -1090,-2243 -70,-337 -101,-650 -101,-1027 0,-465 47,-842 161,-1279 22,-85 38,-158 37,-163 -2,-4 -534,-381 -1183,-837 l -1180,-830 -30,33 c -16,18 -84,95 -150,172 -144,167 -415,439 -583,586 -891,783 -1947,1305 -3087,1524 -104,20 -196,38 -202,40 -10,3 -13,298 -13,1432 v 1429 l 173,43 c 758,186 1485,561 2087,1076 151,129 421,399 549,549 987,1155 1405,2659 1155,4160 -133,796 -457,1548 -954,2210 -281,374 -647,736 -1035,1025 -933,696 -2103,1051 -3270,993 z m 615,-2648 c 401,-64 783,-226 1117,-476 134,-101 370,-338 475,-479 257,-345 412,-720 474,-1145 25,-165 25,-505 1,-665 -80,-527 -303,-985 -662,-1358 -383,-399 -853,-645 -1412,-739 -154,-26 -560,-26 -723,0 -691,110 -1293,493 -1682,1073 -359,535 -494,1207 -367,1834 152,749 642,1388 1324,1725 269,133 531,209 865,249 84,10 489,-3 590,-19 z m 12258,-7076 c 377,-41 776,-186 1094,-401 212,-142 447,-364 596,-561 614,-815 665,-1907 129,-2774 -338,-545 -882,-939 -1509,-1093 -215,-53 -321,-64 -578,-64 -257,0 -363,11 -578,64 -702,172 -1293,643 -1618,1291 -175,349 -256,691 -257,1084 -1,212 9,314 49,513 123,613 510,1183 1048,1543 305,205 716,357 1071,397 114,13 438,14 553,1 z M 6855,23030 c 440,-42 810,-145 1200,-335 357,-174 617,-358 903,-639 565,-555 902,-1233 1009,-2031 24,-186 24,-649 -1,-830 -41,-298 -109,-568 -203,-810 -436,-1115 -1402,-1920 -2573,-2144 -279,-53 -712,-72 -970,-42 -977,113 -1812,583 -2393,1349 -1045,1377 -897,3307 347,4519 578,564 1313,897 2131,966 96,8 450,6 550,-3 z m 12414,-8255 c 790,-117 1477,-609 1836,-1315 393,-773 359,-1662 -90,-2395 -259,-425 -673,-785 -1120,-976 -326,-139 -624,-200 -975,-200 -348,0 -649,62 -967,197 -423,181 -813,504 -1070,889 -221,330 -352,681 -405,1085 -20,153 -15,469 11,635 104,684 481,1287 1051,1677 348,239 729,374 1185,422 83,9 444,-4 544,-19 z M 6724,7570 c 602,-44 1147,-293 1570,-716 677,-677 901,-1669 579,-2564 -121,-336 -320,-647 -578,-905 -592,-593 -1430,-843 -2245,-669 -369,78 -759,268 -1054,512 -730,607 -1049,1581 -817,2492 86,335 241,647 459,925 71,90 307,326 397,397 434,341 937,520 1505,536 30,1 113,-3 184,-8 z"
       id="path4"
       style="fill:url(#linearGradient4503);fill-opacity:1.0"
       inkscape:connector-curvature="0" />
  </g>
</svg>
